<?xml version="1.0" encoding="UTF-8"?>
<svg id="Calque_1" data-name="Calque 1" xmlns="http://www.w3.org/2000/svg" viewBox="0 0 500 315">
  <defs>
    <style>
      .cls-1 {
        fill: #1d1d1b;
      }

      .cls-2 {
        fill: #e83967;
      }
    </style>
  </defs>
  <path class="cls-1" d="M11.2145982,284.8254735h-2.2854758v-2.554831h2.2854758v-2.314713c0-1.1016815.2849069-2.0186089.8559648-2.7501602s1.5178446-1.097327,2.84036-1.097327c.4006114,0,.821129.0404344,1.2627969.1206811.4404238.0802467.811176.1704465,1.1122566.2699773v2.1641727h-1.5327742c-.9629604,0-1.4431965.461574-1.4431965,1.3828559v2.2245132h2.9759707v2.554831h-2.9759707v13.2550132h-3.0954076v-13.2550132ZM20.7869721,296.4121018c-1.2528438-1.3523746-1.8786437-3.4313241-1.8786437-6.2368482,0-2.8049021.6257999-4.8838515,1.8786437-6.2368482,1.2515997-1.3523746,3.1302434-2.028562,5.6359311-2.028562,2.5044436,0,4.3880638.6761873,5.6496166,2.028562,1.2627969,1.3529967,1.8935733,3.4319461,1.8935733,6.2368482,0,2.8055242-.6307764,4.8844736-1.8935733,6.2368482-1.2615528,1.3529967-3.145173,2.029184-5.6496166,2.029184-2.5056877,0-4.3843314-.6761873-5.6359311-2.029184ZM29.7434993,294.5490098c.691739-.8914227,1.0376085-2.2997834,1.0376085-4.2232159v-.3004586c0-1.9240546-.3458695-3.3311712-1.0376085-4.2232159-.691739-.8914227-1.7990191-1.337445-3.320596-1.337445-1.502915,0-2.6002419.4460224-3.2919809,1.337445-.691739.8920447-1.0363644,2.2991613-1.0363644,4.2232159v.3004586c0,1.9234326.3446254,3.3317933,1.0363644,4.2232159s1.789066,1.337445,3.2919809,1.337445c1.521577,0,2.628857-.4460224,3.320596-1.337445ZM37.3936848,282.2706425h2.4944905l.3010806,2.4341499h.1803996c.7203541-1.863092,1.9333856-2.7949491,3.6366063-2.7949491.3607991,0,.6755653.0348358.9467867.1051294.2699773.0702936.4454003.1157045.5262691.1349886v2.9454894h-1.1122566c-1.1831723,0-2.1249824.341515-2.8254304,1.0220568-.7016921.6817859-1.0525381,1.7237489-1.0525381,3.1258889v8.8370902h-3.0954076v-15.8098442ZM48.213926,282.2706425h2.4944905l.3010806,2.1038321h.2102588c.5411987-.8012229,1.2018343-1.4127152,1.983151-1.8338548.7813167-.4205176,1.6733614-.6307764,2.67489-.6307764,2.0441136,0,3.4163944.8217511,4.1180865,2.4646312h.1803996c.5411987-.7813167,1.2329377-1.3872104,2.0739729-1.8183032.8422793-.4310927,1.7629392-.6463281,2.7657119-.6463281,1.4830088,0,2.6450308.3956349,3.486066,1.1869047.8422793.7918919,1.2627969,2.0696184,1.2627969,3.8325576v11.1511811h-3.0954076v-10.5502639c0-1.0817753-.2363856-1.8481624-.7066686-2.2991613-.4715271-.4509989-1.1271862-.6761873-1.9694655-.6761873-.9816224,0-1.8027515.3906584-2.4646312,1.1719751-.6606356.7813167-.9915755,1.8033735-.9915755,3.0661705v9.287467h-3.0954076v-10.5502639c0-1.0817753-.2251884-1.8481624-.6768094-2.2991613-.4503768-.4509989-1.097327-.6761873-1.9383622-.6761873-.9816224,0-1.8139487.3906584-2.4944905,1.1719751-.6817859.7813167-1.0226789,1.8033735-1.0226789,3.0661705v9.287467h-3.0954076v-15.8098442ZM74.6194451,297.4795696c-1.0525381-.6413515-1.5788072-1.8033735-1.5788072-3.4866881,0-2.0235854.8820916-3.4269696,2.6450308-4.2082863,1.7641833-.7813167,4.288533-1.1719751,7.5755374-1.1719751v-1.5632555c0-.8609414-.2264326-1.5178446-.6768094-1.9688435-.4503768-.4503768-1.2876796-.6761873-2.5094201-.6761873-1.1831723,0-2.0192309.2102588-2.5106642.6313985-.4901892.4205176-.7365279.931857-.7365279,1.5327742v.3906584h-3.0045858c-.0211503-.120059-.0311034-.3402709-.0311034-.6612577,0-1.3822339.581011-2.4596547,1.7442771-3.2310183,1.162022-.7713636,2.7147024-1.1570455,4.6580411-1.1570455,2.0441136,0,3.5818644.4205176,4.6144963,1.2621749,1.0313878.8416573,1.5477038,2.0341606,1.5477038,3.5768878v8.0856327c0,.3601771.0995308.6264219.3010806.7962463.1990616.1704465.4503768.2556697.7514575.2556697h1.0811532v2.0739729c-.5212925.2600242-1.2316936.3906584-2.1336914.3906584-.7215982,0-1.3274919-.1953292-1.8189252-.5859875s-.8161525-.9268805-.9766459-1.6080444h-.2102588c-.5611048.7209762-1.2777265,1.282081-2.148621,1.6826925-.8721386.4006114-1.8898409.6015392-3.0518629.6015392-1.3026092,0-2.4795609-.3209868-3.5308548-.9617163ZM82.043198,294.8494684c.811176-.7110231,1.2180081-1.6882911,1.2180081-2.9305598v-.9617163c-2.2854758,0-4.0285088.1953292-5.2303431.5859875-1.2030784.3906584-1.8039956,1.1271862-1.8039956,2.2089615,0,.7415044.2351415,1.2876796.7066686,1.6385257.470283.350224,1.1769516.525647,2.1187617.525647,1.1819282,0,2.1797243-.3552005,2.9909003-1.0668457ZM92.2475925,297.3744402c-.5411987-.691739-.811176-1.5483259-.811176-2.5703827v-9.978584h-1.9234326v-2.554831h1.9532918l.6009172-4.4185451h2.4646312v4.4185451h2.67489v2.554831h-2.67489v9.6781254c0,.921904.4304707,1.3828559,1.2926562,1.3828559h1.3822339v2.1038321c-.2600242.120059-.6158468.2202119-1.0662236.3004586-.451621.0802467-.8771151.1206811-1.2777265.1206811-1.2018343,0-2.0739729-.3458695-2.6151716-1.0369864ZM100.2436475,276.3491824h3.0954076v3.1862295h-3.0954076v-3.1862295ZM100.2436475,282.2706425h3.0954076v15.8098442h-3.0954076v-15.8098442ZM108.6440463,296.4121018c-1.2528438-1.3523746-1.8786437-3.4313241-1.8786437-6.2368482,0-2.8049021.6257999-4.8838515,1.8786437-6.2368482,1.2515997-1.3523746,3.1302434-2.028562,5.6359311-2.028562,2.5044436,0,4.3880638.6761873,5.6496166,2.028562,1.2627969,1.3529967,1.8935733,3.4319461,1.8935733,6.2368482,0,2.8055242-.6307764,4.8844736-1.8935733,6.2368482-1.2615528,1.3529967-3.145173,2.029184-5.6496166,2.029184-2.5056877,0-4.3843314-.6761873-5.6359311-2.029184ZM117.6005734,294.5490098c.691739-.8914227,1.0376085-2.2997834,1.0376085-4.2232159v-.3004586c0-1.9240546-.3458695-3.3311712-1.0376085-4.2232159-.691739-.8914227-1.7990191-1.337445-3.320596-1.337445-1.502915,0-2.6002419.4460224-3.2919809,1.337445-.691739.8920447-1.0363644,2.2991613-1.0363644,4.2232159v.3004586c0,1.9234326.3446254,3.3317933,1.0363644,4.2232159s1.789066,1.337445,3.2919809,1.337445c1.521577,0,2.628857-.4460224,3.320596-1.337445ZM125.2507589,282.2706425h2.4944905l.3010806,2.1038321h.2102588c.5598607-.8012229,1.2864355-1.4127152,2.1784802-1.8338548.8920447-.4205176,1.8985499-.6307764,3.0207595-.6307764,3.3467229,0,5.0200843,1.8133266,5.0200843,5.4399798v10.7306635h-3.0966518v-10.3400051c0-1.1819282-.2650007-2.0086558-.7962463-2.4795609-.5312456-.470283-1.3075858-.7060466-2.3290205-.7060466-.7016921,0-1.3523746.175423-1.9532918.525647-.6021613.350846-1.0774208.8472559-1.4282669,1.4879853-.350846.6413515-.5262691,1.3828559-.5262691,2.2245132v9.287467h-3.0954076v-15.8098442ZM169.974551,276.3491824h3.0954076v3.1862295h-3.0954076v-3.1862295ZM169.974551,282.2706425h3.0954076v15.8098442h-3.0954076v-15.8098442ZM177.4592666,282.2706425h2.4944905l.3010806,2.1038321h.2102588c.5598607-.8012229,1.2864355-1.4127152,2.1784802-1.8338548.8920447-.4205176,1.8985499-.6307764,3.0207595-.6307764,3.3467229,0,5.0200843,1.8133266,5.0200843,5.4399798v10.7306635h-3.0966518v-10.3400051c0-1.1819282-.2650007-2.0086558-.7962463-2.4795609-.5312456-.470283-1.3075858-.7060466-2.3290205-.7060466-.7016921,0-1.3523746.175423-1.9532918.525647-.6021613.350846-1.0774208.8472559-1.4282669,1.4879853-.350846.6413515-.5262691,1.3828559-.5262691,2.2245132v9.287467h-3.0954076v-15.8098442ZM196.1548817,297.3744402c-.5411987-.691739-.811176-1.5483259-.811176-2.5703827v-9.978584h-1.9234326v-2.554831h1.9532918l.6009172-4.4185451h2.4646312v4.4185451h2.67489v2.554831h-2.67489v9.6781254c0,.921904.4304707,1.3828559,1.2926562,1.3828559h1.3822339v2.1038321c-.2600242.120059-.6158468.2202119-1.0662236.3004586-.451621.0802467-.8771151.1206811-1.2777265.1206811-1.2018343,0-2.0739729-.3458695-2.6151716-1.0369864ZM205.1114089,296.4270314c-1.2428908-1.3417995-1.8637141-3.4263475-1.8637141-6.2517779s.6208233-4.9087342,1.8637141-6.2517779c1.2416466-1.3424216,3.1352199-2.0136323,5.6807199-2.0136323,2.3041378,0,4.0272647.6264219,5.1693805,1.8786437s1.7131738,3.2409714,1.7131738,5.9662489v1.2024564h-11.2407588c.0796246,1.7032207.4653065,2.960419,1.1570455,3.7715949.691739.811798,1.7679157,1.217386,3.2310183,1.217386,1.1421158,0,2.0640198-.2699773,2.7657119-.811176.7004479-.5411987,1.051294-1.3722808,1.051294-2.4951125h3.0356892c0,1.8842423-.6357529,3.3218402-1.9085029,4.3134157-1.27275.9921976-2.9299377,1.4879853-4.9740513,1.4879853-2.5455,0-4.4390733-.6712108-5.6807199-2.0142544ZM214.4585944,288.6126201c0-2.8055242-1.2217405-4.2082863-3.6664655-4.2082863-1.3623277,0-2.3850066.3359164-3.0655484,1.0071272-.6817859.6712108-1.0923504,1.7386785-1.2329377,3.2011591h7.9649516ZM211.6941266,276.3491824h3.2160887l.0298592.0901998-3.245948,3.8773464h-2.5255938l2.5255938-3.9675462ZM220.966664,302.6190908c-.8323262-.6214454-1.2478673-1.5626334-1.2478673-2.8254304,0-1.5626334.8422793-2.67489,2.5255938-3.3361477-.4814802-.2600242-.8721386-.5959406-1.1732192-1.0071272-.2998365-.4105645-.4503768-.876493-.4503768-1.3977856,0-.7408823.2699773-1.3268699.811176-1.7579626s1.162022-.7365279,1.8637141-.9169274c-.6817859-.4808581-1.2130315-1.0718222-1.5924927-1.7735143-.3807053-.70107-.5710579-1.4823867-.5710579-2.3445722,0-1.6826925.581011-2.9952548,1.743033-3.9370649s2.7744208-1.4127152,4.8396848-1.4127152c1.1010594,0,2.1137852.1704465,3.0356892.5107174,1.2615528-.6612577,1.973198-1.5725865,2.1336914-2.7352306h2.9759707c0,1.0021507-.2811745,1.8438079-.8422793,2.5249718s-1.3324685,1.1321628-2.3140909,1.3523746c1.0823974.9617163,1.623596,2.1940319,1.623596,3.6969469,0,1.6634084-.5822551,2.9660176-1.7442771,3.9078277s-2.7644677,1.4127152-4.8085814,1.4127152h-2.4944905c-.4814802,0-.8522324.1101059-1.1122566.3303178-.2612683.2208339-.3906584.5013864-.3906584.8416573,0,.340893.1244135.6214454.3757287.8416573.2500711.2208339.6058937.3309399,1.0662236.3309399h6.612577c1.2229846,0,2.204607.3807053,2.9461114,1.1421158s1.1122566,1.7032207,1.1122566,2.8254304c0,.821129-.2003057,1.5875161-.6009172,2.2991613-.4018556.7110231-1.0027727,1.282081-1.8039956,1.7131738-.8012229.4304707-1.7629392.6463281-2.8851488.6463281h-6.7033988c-1.1222097,0-2.0988556-.3110337-2.9299377-.931857ZM230.6298598,301.2063756c.6208233,0,1.1371393-.1704465,1.5477038-.5107174.4105645-.340893.6158468-.7819388.6158468-1.3225154,0-.5411987-.1704465-.9722914-.5100953-1.2926562-.340893-.3203647-.7813167-.4808581-1.3225154-.4808581h-6.3425997c-.5411987,0-.9766459.1604934-1.3075858.4808581s-.4951657.7514575-.4951657,1.2926562c0,.5604828.1642258,1.0065051.4951657,1.337445.3309399.3303178.7663871.4957878,1.3075858.4957878h6.0116598ZM230.3598825,289.5289255c.6009172-.5306235.9007537-1.2870576.9007537-2.2693021,0-.9816224-.29486-1.7380565-.885824-2.2693021-.5922082-.5306235-1.4780323-.7962463-2.6599604-.7962463-1.1632661,0-2.0403812.2656228-2.6301012.7962463-.5922082.5312456-.8870682,1.2876796-.8870682,2.2693021,0,.9822445.29486,1.7386785.8870682,2.2693021.5897199.5312456,1.466835.7968684,2.6301012.7968684,1.1607779,0,2.0428695-.2656228,2.6450308-.7968684ZM238.6856332,282.2706425h2.4944905l.3010806,2.4341499h.1803996c.7203541-1.863092,1.9333856-2.7949491,3.6366063-2.7949491.3607991,0,.6755653.0348358.9467867.1051294.2699773.0702936.4454003.1157045.5262691.1349886v2.9454894h-1.1122566c-1.1831723,0-2.1249824.341515-2.8254304,1.0220568-.7016921.6817859-1.0525381,1.7237489-1.0525381,3.1258889v8.8370902h-3.0954076v-15.8098442ZM250.0620028,297.4795696c-1.0525381-.6413515-1.5788072-1.8033735-1.5788072-3.4866881,0-2.0235854.8820916-3.4269696,2.6450308-4.2082863,1.7641833-.7813167,4.288533-1.1719751,7.5755374-1.1719751v-1.5632555c0-.8609414-.2264326-1.5178446-.6768094-1.9688435-.4503768-.4503768-1.2876796-.6761873-2.5094201-.6761873-1.1831723,0-2.0192309.2102588-2.5106642.6313985-.4901892.4205176-.7365279.931857-.7365279,1.5327742v.3906584h-3.0045858c-.0211503-.120059-.0311034-.3402709-.0311034-.6612577,0-1.3822339.581011-2.4596547,1.7442771-3.2310183,1.162022-.7713636,2.7147024-1.1570455,4.6580411-1.1570455,2.0441136,0,3.5818644.4205176,4.6144963,1.2621749,1.0313878.8416573,1.5477038,2.0341606,1.5477038,3.5768878v8.0856327c0,.3601771.0995308.6264219.3010806.7962463.1990616.1704465.4503768.2556697.7514575.2556697h1.0811532v2.0739729c-.5212925.2600242-1.2316936.3906584-2.1336914.3906584-.7215982,0-1.3274919-.1953292-1.8189252-.5859875s-.8161525-.9268805-.9766459-1.6080444h-.2102588c-.5611048.7209762-1.2777265,1.282081-2.148621,1.6826925-.8721386.4006114-1.8898409.6015392-3.0518629.6015392-1.3026092,0-2.4795609-.3209868-3.5308548-.9617163ZM257.4857557,294.8494684c.811176-.7110231,1.2180081-1.6882911,1.2180081-2.9305598v-.9617163c-2.2854758,0-4.0285088.1953292-5.2303431.5859875-1.2030784.3906584-1.8039956,1.1271862-1.8039956,2.2089615,0,.7415044.2351415,1.2876796.7066686,1.6385257.470283.350224,1.1769516.525647,2.1187617.525647,1.1819282,0,2.1797243-.3552005,2.9909003-1.0668457ZM267.6901501,297.3744402c-.5411987-.691739-.811176-1.5483259-.811176-2.5703827v-9.978584h-1.9234326v-2.554831h1.9532918l.6009172-4.4185451h2.4646312v4.4185451h2.67489v2.554831h-2.67489v9.6781254c0,.921904.4304707,1.3828559,1.2926562,1.3828559h1.3822339v2.1038321c-.2600242.120059-.6158468.2202119-1.0662236.3004586-.451621.0802467-.8771151.1206811-1.2777265.1206811-1.2018343,0-2.0739729-.3458695-2.6151716-1.0369864ZM275.6862051,276.3491824h3.0954076v3.1862295h-3.0954076v-3.1862295ZM275.6862051,282.2706425h3.0954076v15.8098442h-3.0954076v-15.8098442ZM284.086604,296.4121018c-1.2528438-1.3523746-1.8786437-3.4313241-1.8786437-6.2368482,0-2.8049021.6257999-4.8838515,1.8786437-6.2368482,1.2515997-1.3523746,3.1302434-2.028562,5.6359311-2.028562,2.5044436,0,4.3880638.6761873,5.6496166,2.028562,1.2627969,1.3529967,1.8935733,3.4319461,1.8935733,6.2368482,0,2.8055242-.6307764,4.8844736-1.8935733,6.2368482-1.2615528,1.3529967-3.145173,2.029184-5.6496166,2.029184-2.5056877,0-4.3843314-.6761873-5.6359311-2.029184ZM293.0431311,294.5490098c.691739-.8914227,1.0376085-2.2997834,1.0376085-4.2232159v-.3004586c0-1.9240546-.3458695-3.3311712-1.0376085-4.2232159-.691739-.8914227-1.7990191-1.337445-3.320596-1.337445-1.502915,0-2.6002419.4460224-3.2919809,1.337445-.691739.8920447-1.0363644,2.2991613-1.0363644,4.2232159v.3004586c0,1.9234326.3446254,3.3317933,1.0363644,4.2232159s1.789066,1.337445,3.2919809,1.337445c1.521577,0,2.628857-.4460224,3.320596-1.337445ZM300.6933166,282.2706425h2.4944905l.3010806,2.1038321h.2102588c.5598607-.8012229,1.2864355-1.4127152,2.1784802-1.8338548.8920447-.4205176,1.8985499-.6307764,3.0207595-.6307764,3.3467229,0,5.0200843,1.8133266,5.0200843,5.4399798v10.7306635h-3.0966518v-10.3400051c0-1.1819282-.2650007-2.0086558-.7962463-2.4795609-.5312456-.470283-1.3075858-.7060466-2.3290205-.7060466-.7016921,0-1.3523746.175423-1.9532918.525647-.6021613.350846-1.0774208.8472559-1.4282669,1.4879853-.350846.6413515-.5262691,1.3828559-.5262691,2.2245132v9.287467h-3.0954076v-15.8098442ZM347.2045613,297.4795696c-1.0525381-.6413515-1.5788072-1.8033735-1.5788072-3.4866881,0-2.0235854.8820916-3.4269696,2.6450308-4.2082863,1.7641833-.7813167,4.288533-1.1719751,7.5755374-1.1719751v-1.5632555c0-.8609414-.2264326-1.5178446-.6768094-1.9688435-.4503768-.4503768-1.2876796-.6761873-2.5094201-.6761873-1.1831723,0-2.0192309.2102588-2.5106642.6313985-.4901892.4205176-.7365279.931857-.7365279,1.5327742v.3906584h-3.0045858c-.0211503-.120059-.0311034-.3402709-.0311034-.6612577,0-1.3822339.581011-2.4596547,1.7442771-3.2310183,1.162022-.7713636,2.7147024-1.1570455,4.6580411-1.1570455,2.0441136,0,3.5818644.4205176,4.6144963,1.2621749,1.0313878.8416573,1.5477038,2.0341606,1.5477038,3.5768878v8.0856327c0,.3601771.0995308.6264219.3010806.7962463.1990616.1704465.4503768.2556697.7514575.2556697h1.0811532v2.0739729c-.5212925.2600242-1.2316936.3906584-2.1336914.3906584-.7215982,0-1.3274919-.1953292-1.8189252-.5859875s-.8161525-.9268805-.9766459-1.6080444h-.2102588c-.5611048.7209762-1.2777265,1.282081-2.148621,1.6826925-.8721386.4006114-1.8898409.6015392-3.0518629.6015392-1.3026092,0-2.4795609-.3209868-3.5308548-.9617163ZM354.6283143,294.8494684c.811176-.7110231,1.2180081-1.6882911,1.2180081-2.9305598v-.9617163c-2.2854758,0-4.0285088.1953292-5.2303431.5859875-1.2030784.3906584-1.8039956,1.1271862-1.8039956,2.2089615,0,.7415044.2351415,1.2876796.7066686,1.6385257.470283.350224,1.1769516.525647,2.1187617.525647,1.1819282,0,2.1797243-.3552005,2.9909003-1.0668457ZM363.6607336,282.2706425h2.4646312l.2998365,2.1038321h.2115029c.5001422-.8012229,1.1769516-1.4127152,2.0279399-1.8338548.8522324-.4205176,1.7990191-.6307764,2.84036-.6307764,2.0043013,0,3.5470286.6761873,4.629426,2.028562,1.0823974,1.3529967,1.6223519,3.4319461,1.6223519,6.2368482,0,2.7657119-.5399545,4.8347082-1.6223519,6.206989-1.0823974,1.3729029-2.5554531,2.0590433-4.4191672,2.0590433-2.1834567,0-3.7771936-.7215982-4.7787221-2.1641727h-.1803996v7.0032353h-3.0954076v-21.009706ZM373.6697989,294.5639394c.6009172-.8416573.9019978-2.2444194.9019978-4.2082863v-.2705993c0-2.0030572-.3010806-3.4313241-.9019978-4.2829344s-1.613643-1.2777265-3.0356892-1.2777265c-1.3424216,0-2.3252881.4715271-2.9461114,1.4127152-.6208233.9424322-.931857,2.3246661-.931857,4.1479458v.2407401c0,1.8033735.3110337,3.1706778.931857,4.1025348s1.6036899,1.3977856,2.9461114,1.3977856c1.4220462,0,2.434772-.4205176,3.0356892-1.2621749ZM381.1843737,282.2706425h2.4646312l.2998365,2.1038321h.2115029c.5001422-.8012229,1.1769516-1.4127152,2.0279399-1.8338548.8522324-.4205176,1.7990191-.6307764,2.84036-.6307764,2.0043013,0,3.5470286.6761873,4.629426,2.028562,1.0823974,1.3529967,1.6223519,3.4319461,1.6223519,6.2368482,0,2.7657119-.5399545,4.8347082-1.6223519,6.206989-1.0823974,1.3729029-2.5554531,2.0590433-4.4191672,2.0590433-2.1834567,0-3.7771936-.7215982-4.7787221-2.1641727h-.1803996v7.0032353h-3.0954076v-21.009706ZM391.193439,294.5639394c.6009172-.8416573.9019978-2.2444194.9019978-4.2082863v-.2705993c0-2.0030572-.3010806-3.4313241-.9019978-4.2829344s-1.613643-1.2777265-3.0356892-1.2777265c-1.3424216,0-2.3252881.4715271-2.9461114,1.4127152-.6208233.9424322-.931857,2.3246661-.931857,4.1479458v.2407401c0,1.8033735.3110337,3.1706778.931857,4.1025348s1.6036899,1.3977856,2.9461114,1.3977856c1.4220462,0,2.434772-.4205176,3.0356892-1.2621749ZM398.7080137,276.3491824h3.0954076v21.7313043h-3.0954076v-21.7313043ZM406.1927293,276.3491824h3.0954076v3.1862295h-3.0954076v-3.1862295ZM406.1927293,282.2706425h3.0954076v15.8098442h-3.0954076v-15.8098442ZM414.4575174,296.4270314c-1.162022-1.3417995-1.743033-3.4263475-1.743033-6.2517779s.5859875-4.9087342,1.7579626-6.2517779c1.1719751-1.3424216,2.9709941-2.0136323,5.3958131-2.0136323,2.1436444,0,3.7510667.525647,4.823511,1.5775631,1.0724443,1.0525381,1.6086664,2.6108171,1.6086664,4.6742148h-3.126511c0-1.282081-.2550477-2.2245132-.7663871-2.8254304s-1.3673043-.9019978-2.5703827-.9019978c-1.3623277,0-2.3588798.4509989-2.9896562,1.3529967-.6320205.9013757-.9467867,2.3445722-.9467867,4.3283453v.2102588c0,1.9638669.3147661,3.3865352.9467867,4.2680048.6307764.8820916,1.6472346,1.3225154,3.0506188,1.3225154,1.1819282,0,2.047846-.3153882,2.6002419-.9467867.5499076-.6313985.8261056-1.5576569.8261056-2.7800194h2.9759707c0,1.8836202-.5411987,3.3964883-1.623596,4.5386041s-2.6848431,1.7131738-4.8085814,1.7131738c-2.4459692,0-4.2487207-.6712108-5.4107427-2.0142544ZM430.0726546,297.4795696c-1.0525381-.6413515-1.5788072-1.8033735-1.5788072-3.4866881,0-2.0235854.8820916-3.4269696,2.6450308-4.2082863,1.7641833-.7813167,4.288533-1.1719751,7.5755374-1.1719751v-1.5632555c0-.8609414-.2264326-1.5178446-.6768094-1.9688435-.4503768-.4503768-1.2876796-.6761873-2.5094201-.6761873-1.1831723,0-2.0192309.2102588-2.5106642.6313985-.4901892.4205176-.7365279.931857-.7365279,1.5327742v.3906584h-3.0045858c-.0211503-.120059-.0311034-.3402709-.0311034-.6612577,0-1.3822339.581011-2.4596547,1.7442771-3.2310183,1.162022-.7713636,2.7147024-1.1570455,4.6580411-1.1570455,2.0441136,0,3.5818644.4205176,4.6144963,1.2621749,1.0313878.8416573,1.5477038,2.0341606,1.5477038,3.5768878v8.0856327c0,.3601771.0995308.6264219.3010806.7962463.1990616.1704465.4503768.2556697.7514575.2556697h1.0811532v2.0739729c-.5212925.2600242-1.2316936.3906584-2.1336914.3906584-.7215982,0-1.3274919-.1953292-1.8189252-.5859875s-.8161525-.9268805-.9766459-1.6080444h-.2102588c-.5611048.7209762-1.2777265,1.282081-2.148621,1.6826925-.8721386.4006114-1.8898409.6015392-3.0518629.6015392-1.3026092,0-2.4795609-.3209868-3.5308548-.9617163ZM437.4964075,294.8494684c.811176-.7110231,1.2180081-1.6882911,1.2180081-2.9305598v-.9617163c-2.2854758,0-4.0285088.1953292-5.2303431.5859875-1.2030784.3906584-1.8039956,1.1271862-1.8039956,2.2089615,0,.7415044.2351415,1.2876796.7066686,1.6385257.470283.350224,1.1769516.525647,2.1187617.525647,1.1819282,0,2.1797243-.3552005,2.9909003-1.0668457ZM447.7008019,297.3744402c-.5411987-.691739-.811176-1.5483259-.811176-2.5703827v-9.978584h-1.9234326v-2.554831h1.9532918l.6009172-4.4185451h2.4646312v4.4185451h2.67489v2.554831h-2.67489v9.6781254c0,.921904.4304707,1.3828559,1.2926562,1.3828559h1.3822339v2.1038321c-.2600242.120059-.6158468.2202119-1.0662236.3004586-.451621.0802467-.8771151.1206811-1.2777265.1206811-1.2018343,0-2.0739729-.3458695-2.6151716-1.0369864ZM455.6968569,276.3491824h3.0954076v3.1862295h-3.0954076v-3.1862295ZM455.6968569,282.2706425h3.0954076v15.8098442h-3.0954076v-15.8098442ZM464.0972558,296.4121018c-1.2528438-1.3523746-1.8786437-3.4313241-1.8786437-6.2368482,0-2.8049021.6257999-4.8838515,1.8786437-6.2368482,1.2515997-1.3523746,3.1302434-2.028562,5.6359311-2.028562,2.5044436,0,4.3880638.6761873,5.6496166,2.028562,1.2627969,1.3529967,1.8935733,3.4319461,1.8935733,6.2368482,0,2.8055242-.6307764,4.8844736-1.8935733,6.2368482-1.2615528,1.3529967-3.145173,2.029184-5.6496166,2.029184-2.5056877,0-4.3843314-.6761873-5.6359311-2.029184ZM473.0537829,294.5490098c.691739-.8914227,1.0376085-2.2997834,1.0376085-4.2232159v-.3004586c0-1.9240546-.3458695-3.3311712-1.0376085-4.2232159-.691739-.8914227-1.7990191-1.337445-3.320596-1.337445-1.502915,0-2.6002419.4460224-3.2919809,1.337445-.691739.8920447-1.0363644,2.2991613-1.0363644,4.2232159v.3004586c0,1.9234326.3446254,3.3317933,1.0363644,4.2232159s1.789066,1.337445,3.2919809,1.337445c1.521577,0,2.628857-.4460224,3.320596-1.337445ZM480.7039684,282.2706425h2.4944905l.3010806,2.1038321h.2102588c.5598607-.8012229,1.2864355-1.4127152,2.1784802-1.8338548.8920447-.4205176,1.8985499-.6307764,3.0207595-.6307764,3.3467229,0,5.0200843,1.8133266,5.0200843,5.4399798v10.7306635h-3.0966518v-10.3400051c0-1.1819282-.2650007-2.0086558-.7962463-2.4795609-.5312456-.470283-1.3075858-.7060466-2.3290205-.7060466-.7016921,0-1.3523746.175423-1.9532918.525647-.6021613.350846-1.0774208.8472559-1.4282669,1.4879853-.350846.6413515-.5262691,1.3828559-.5262691,2.2245132v9.287467h-3.0954076v-15.8098442ZM155.8097388,286.4562894h-4.9641451l-2.4820726,4.2990758,2.4820726,4.2990758h4.9641451l2.4820726-4.2990758-2.4820726-4.2990758ZM332.2342319,286.4562894h-4.9641451l-2.4820726,4.2990758,2.4820726,4.2990758h4.9641451l2.4820726-4.2990758-2.4820726-4.2990758Z"/>
  <g>
    <g>
      <path class="cls-1" d="M12.1610586,194.5450261h24.1539172c7.4480691,0,13.1609809,5.3509699,13.1609809,12.726891,0,4.6294908-2.3856908,8.7515413-5.640764,10.6309943,4.9180824,1.7363597,8.3174514,7.0151816,8.3174514,13.0178876,0,7.882159-6.002706,13.5229229-13.9582153,13.5229229H12.1610586v-49.8986958ZM21.8517252,203.5118086v10.9929363h11.9320616c3.0374269,0,5.4964681-2.3868933,5.4964681-5.4964681s-2.3868933-5.4964681-5.4964681-5.4964681h-11.9320616ZM21.8517252,222.9652896v12.5116498h13.8848649c3.5436648,0,6.2191497-2.7488353,6.2191497-6.2925001,0-3.4703144-2.6754849-6.2191497-6.2191497-6.2191497h-13.8848649Z"/>
      <path class="cls-1" d="M58.0783924,219.4937728c0-14.6796944,11.2815279-25.8169265,26.3231643-25.8169265,14.9694885,0,26.3231643,11.1372321,26.3231643,25.8169265,0,14.6808969-11.3536758,25.818129-26.3231643,25.818129-15.0416364,0-26.3231643-11.1372321-26.3231643-25.818129ZM100.4556688,219.4937728c0-9.2565766-6.9418312-16.1984079-16.0541121-16.1984079-9.1844287,0-16.12626,6.9418312-16.12626,16.1984079s6.9418312,16.1996103,16.12626,16.1996103c9.1122808,0,16.0541121-6.9430337,16.0541121-16.1996103Z"/>
      <path class="cls-1" d="M120.1207836,194.5450261h10.1247565l22.7073517,32.8321081v-32.8321081h9.9792582v49.8986958h-10.1247565l-22.7073517-32.8321081v32.8321081h-9.9792582v-49.8986958Z"/>
      <path class="cls-1" d="M170.8107015,228.1719637h10.2690523c0,4.4839925,2.965279,7.5214194,7.0151816,7.5214194,4.0487001,0,7.0139791-3.0374269,7.0139791-7.0151816v-34.1331754h9.9804606v34.1331754c0,9.4742228-7.3049757,16.6337002-17.1399381,16.6337002-9.7628145,0-17.1387356-7.1594774-17.1387356-17.1399381Z"/>
      <path class="cls-1" d="M213.6184604,219.4937728c0-14.6796944,11.2815279-25.8169265,26.3231643-25.8169265,14.9694885,0,26.3231643,11.1372321,26.3231643,25.8169265,0,14.6808969-11.3536758,25.818129-26.3231643,25.818129-15.0416364,0-26.3231643-11.1372321-26.3231643-25.818129ZM255.9957368,219.4937728c0-9.2565766-6.9418312-16.1984079-16.0541121-16.1984079-9.1844287,0-16.12626,6.9418312-16.12626,16.1984079s6.9418312,16.1996103,16.12626,16.1996103c9.1122808,0,16.0541121-6.9430337,16.0541121-16.1996103Z"/>
      <path class="cls-1" d="M274.7205239,225.1345367v-30.5895106h9.9792582v30.4452148c0,6.0748539,4.5561404,10.7031422,10.7031422,10.7031422s10.7031422-4.6282883,10.7031422-10.7031422v-30.4452148h9.9792582v30.5895106c0,11.4991741-8.8946346,20.177365-20.6824004,20.177365s-20.6824004-8.6781909-20.6824004-20.177365Z"/>
      <path class="cls-1" d="M327.073451,194.5450261h22.2011138c9.6185186,0,16.9222919,7.0139791,16.9222919,16.3439061,0,7.520217-4.9180824,13.3786271-12.0042095,15.1859322l3.4703144,4.9902303c1.8806555,2.6754849,4.4118446,3.9777547,7.5214194,3.9777547h2.0249513v9.4008724h-3.1095748c-7.3037732,0-12.5104473-2.8197807-15.7655204-8.6781909l-5.7129119-9.1122808h-5.5686161v17.7904717h-9.9792582v-49.8986958ZM337.0527092,203.9458985v14.0303632h12.0054119c3.9044043,0,6.8696833-3.0374269,6.8696833-7.0151816s-2.965279-7.0151816-6.8696833-7.0151816h-12.0054119Z"/>
    </g>
    <path class="cls-2" d="M417.3484356,191.7039482v52.3790056h-13.5445673v-52.3790056c0-.9936871.8055765-1.7992636,1.7993388-1.7992636h9.9458898c.9937623,0,1.7993388.8055765,1.7993388,1.7992636ZM462.6221499,191.9929156c-1.9742223-3.4195102-6.9108678-3.416955-8.8815578.0047347l-29.9984239,52.0853035h14.9246215l19.5116502-33.8775764,19.5592228,33.8775764h14.9586663l-30.0741792-52.0900382Z"/>
  </g>
  <g>
    <g>
      <path class="cls-1" d="M293.3244655,45.3505346l19.559188,33.8775249h14.9587053l-30.0741733-52.0899783c-1.9742816-3.4195548-6.9108833-3.4169569-8.8815646.0046741l-29.998423,52.0853042h14.9245831l19.5116845-33.8775249Z"/>
      <path class="cls-1" d="M293.3244655,123.7126857l19.559188-33.8775249h14.9587053l-30.0741733,52.0899783c-1.9742816,3.4195548-6.9108833,3.4169569-8.8815646-.0046741l-29.998423-52.0853042h14.9245831l19.5116845,33.8775249Z"/>
    </g>
    <g>
      <g>
        <path class="cls-2" d="M261.5682626,27.1314368l-39.1183912.0000088-7.4793527-12.9546144h60.1483312c3.9485622.0000006,6.4146131,4.2765265,4.4367344,7.6940021l-30.1079851,52.0220485-7.4622915-12.9250681,19.582955-33.8363769Z"/>
        <path class="cls-2" d="M193.704649,66.2919384l19.5592032-33.8569421-7.4793527-12.9546188-30.0741578,52.0899872c-1.9742806,3.4195554.4962702,7.6618511,4.4448302,7.6576956h60.1064081l-7.4622915-12.9361219h-39.0946394Z"/>
      </g>
      <g>
        <path class="cls-1" d="M261.5682626,141.9317855h-39.1183912l-7.4793527,12.95461h60.1483312c3.9485622-.0000006,6.4146131-4.2765265,4.4367344-7.6940021l-30.1079851-52.0220485-7.4622915,12.9250681,19.582955,33.8363725Z"/>
        <path class="cls-1" d="M193.704649,102.7712883l19.5592032,33.8569421-7.4793527,12.9546188-30.0741578-52.0899872c-1.9742806-3.4195554.4962702-7.6618511,4.4448302-7.6576956h60.1064081l-7.4622915,12.9361219h-39.0946394Z"/>
      </g>
    </g>
  </g>
</svg>